# xmcd
#
# Track frame offsets:
#	150
#	20900
#	49412
#
# Disc length: 4440 seconds
#
# Revision: 1
# Processed by: cddbd v1.5.1PL0 Copyright (c) Steve Scherf et al.
# Submitted via: CDex 1.50Beta5
#
DISCID=26115603
DTITLE=TRICERATOPS - Tattoo
DYEAR=1900
DGENRE=Rock
TTITLE0=Tattoo
TTITLE1=BE
TTITLE2=データ トラック
EXTD=
EXTT0=
EXTT1=
EXTT2=
PLAYORDER=
